<?xml version="1.0" encoding="UTF-8" standalone="no" ?>
<!DOCTYPE svg PUBLIC "-//W3C//DTD SVG 1.1//EN" "http://www.w3.org/Graphics/SVG/1.1/DTD/svg11.dtd">
<svg xmlns="http://www.w3.org/2000/svg" xmlns:xlink="http://www.w3.org/1999/xlink" version="1.1" width="512" height="512" viewBox="0 0 512 512" xml:space="preserve">
<desc>Created with Fabric.js 4.6.0</desc>
<defs>
</defs>
<g transform="matrix(4.13 0 0 4.13 394.77 297.93)" id="H-puWE8MlvcWTRS7P-jBs"  >
<path style="stroke: rgb(0,0,0); stroke-width: 7; stroke-dasharray: none; stroke-linecap: butt; stroke-dashoffset: 0; stroke-linejoin: miter; stroke-miterlimit: 4; fill: rgb(255,255,255); fill-rule: nonzero; opacity: 1;" vector-effect="non-scaling-stroke"  transform=" translate(0, 0)" d="M 0 -10.52632 C 5.81053 -10.52632 10.52632 -5.81053 10.52632 0 C 10.52632 5.81053 5.81053 10.52632 0 10.52632 C -5.81053 10.52632 -10.52632 5.81053 -10.52632 0 C -10.52632 -5.81053 -5.81053 -10.52632 0 -10.52632 z" stroke-linecap="round" />
</g>
<g transform="matrix(4.25 0 0 4.25 110.4 441.57)" id="FmE74TYWpG0rHgFPno8oG"  >
<path style="stroke: rgb(0,0,0); stroke-width: 7; stroke-dasharray: none; stroke-linecap: butt; stroke-dashoffset: 0; stroke-linejoin: miter; stroke-miterlimit: 4; fill: rgb(255,255,255); fill-rule: nonzero; opacity: 1;" vector-effect="non-scaling-stroke"  transform=" translate(0, 0)" d="M 0 -10.52632 C 5.81053 -10.52632 10.52632 -5.81053 10.52632 0 C 10.52632 5.81053 5.81053 10.52632 0 10.52632 C -5.81053 10.52632 -10.52632 5.81053 -10.52632 0 C -10.52632 -5.81053 -5.81053 -10.52632 0 -10.52632 z" stroke-linecap="round" />
</g>
<g transform="matrix(3.96 0 0 3.96 99.82 204.16)" id="mrLVMApq4oXMHrbvTNZ3K"  >
<path style="stroke: rgb(0,0,0); stroke-width: 7; stroke-dasharray: none; stroke-linecap: butt; stroke-dashoffset: 0; stroke-linejoin: miter; stroke-miterlimit: 4; fill: rgb(255,255,255); fill-rule: nonzero; opacity: 1;" vector-effect="non-scaling-stroke"  transform=" translate(0, 0)" d="M 0 -10.52632 C 5.81053 -10.52632 10.52632 -5.81053 10.52632 0 C 10.52632 5.81053 5.81053 10.52632 0 10.52632 C -5.81053 10.52632 -10.52632 5.81053 -10.52632 0 C -10.52632 -5.81053 -5.81053 -10.52632 0 -10.52632 z" stroke-linecap="round" />
</g>
<g transform="matrix(3.91 0 0 3.91 400.17 70.23)" id="KL-pno-Rz9f9fU1-B2uyN"  >
<path style="stroke: rgb(0,0,0); stroke-width: 7; stroke-dasharray: none; stroke-linecap: butt; stroke-dashoffset: 0; stroke-linejoin: miter; stroke-miterlimit: 4; fill: rgb(255,255,255); fill-rule: nonzero; opacity: 1;" vector-effect="non-scaling-stroke"  transform=" translate(0, 0)" d="M 0 -10.52632 C 5.81053 -10.52632 10.52632 -5.81053 10.52632 0 C 10.52632 5.81053 5.81053 10.52632 0 10.52632 C -5.81053 10.52632 -10.52632 5.81053 -10.52632 0 C -10.52632 -5.81053 -5.81053 -10.52632 0 -10.52632 z" stroke-linecap="round" />
</g>
<g transform="matrix(0.39 0.92 -0.92 0.39 250.83 365.96)" id="QqOtbRyBSo9bwCtULBoFf"  >
<path style="stroke: rgb(255,255,255); stroke-width: 0; stroke-dasharray: none; stroke-linecap: butt; stroke-dashoffset: 0; stroke-linejoin: miter; stroke-miterlimit: 4; fill: rgb(0,0,0); fill-rule: nonzero; opacity: 1;" vector-effect="non-scaling-stroke"  transform=" translate(-10, -117.5)" d="M 0 116.10072 L 0 0 L 20 0 L 20 235 L 0 235 z" stroke-linecap="round" />
</g>
<g transform="matrix(0.39 0.92 -0.92 0.39 248.22 133.45)" id="-vYnsP_yvie-DhHRClORy"  >
<path style="stroke: rgb(255,255,255); stroke-width: 0; stroke-dasharray: none; stroke-linecap: butt; stroke-dashoffset: 0; stroke-linejoin: miter; stroke-miterlimit: 4; fill: rgb(0,0,0); fill-rule: nonzero; opacity: 1;" vector-effect="non-scaling-stroke"  transform=" translate(-10, -122.5)" d="M 0 121.04118 L 0 0 L 20 0 L 20 245 L 0 245 z" stroke-linecap="round" />
</g>
<g transform="matrix(-0.34 0.94 -0.94 -0.34 246.58 249.35)" id="o2iEu9ZQpaqZIBIqlmxCa"  >
<path style="stroke: rgb(255,255,255); stroke-width: 0; stroke-dasharray: none; stroke-linecap: butt; stroke-dashoffset: 0; stroke-linejoin: miter; stroke-miterlimit: 4; fill: rgb(0,0,0); fill-rule: nonzero; opacity: 1;" vector-effect="non-scaling-stroke"  transform=" translate(-10, -112)" d="M 0 110.66622 L 0 0 L 20 0 L 20 224 L 0 224 z" stroke-linecap="round" />
</g>
</svg>